<svg width="105" height="136" viewBox="0 0 105 136" fill="none" xmlns="http://www.w3.org/2000/svg">
<path d="M76.7886 0.966797H1.39453V133.537H76.7886V0.966797Z" fill="white"/>
<path d="M75.3018 132.662H22.9375V9.47509L75.3018 2.78613V132.662Z" fill="#FFB86D"/>
<path d="M75.3004 2.78573V132.661H2.7959V2.78573H75.3004ZM78.0962 0H0V135.447H78.0962V0Z" fill="#EA9A3D"/>
<path d="M29.5419 70.9946C31.3546 70.9946 32.8241 69.5304 32.8241 67.7243C32.8241 65.9182 31.3546 64.4541 29.5419 64.4541C27.7292 64.4541 26.2598 65.9182 26.2598 67.7243C26.2598 69.5304 27.7292 70.9946 29.5419 70.9946Z" fill="white"/>
<path fill-rule="evenodd" clip-rule="evenodd" d="M61.0389 56.9453L94.9297 90.8361C102.82 81.3825 102.328 67.2983 93.4523 58.4227C84.5767 49.5472 70.4925 49.0547 61.0389 56.9453ZM91.8361 93.9297L57.9453 60.0389C50.0547 69.4925 50.5472 83.5767 59.4227 92.4523C68.2983 101.328 82.3825 101.82 91.8361 93.9297ZM56.3292 55.3292C67.4347 44.2236 85.4403 44.2236 96.5458 55.3292C107.651 66.4347 107.651 84.4403 96.5458 95.5458C85.4403 106.651 67.4347 106.651 56.3292 95.5458C45.2236 84.4403 45.2236 66.4347 56.3292 55.3292Z" fill="#BA1A1A"/>
</svg>
