<svg width="142" height="126" viewBox="0 0 142 126" fill="none" xmlns="http://www.w3.org/2000/svg">
<path d="M3 67.6154C3 59.9684 9.19913 53.7692 16.8462 53.7692H81.4615C89.1086 53.7692 95.3077 59.9684 95.3077 67.6154V109.154C95.3077 116.801 89.1086 123 81.4615 123H16.8462C9.19913 123 3 116.801 3 109.154V67.6154Z" fill="#FFBA2C"/>
<path d="M76.8462 53.7692V30.6923C76.8462 15.3983 64.4479 3 49.1538 3C33.8598 3 21.4615 15.3983 21.4615 30.6923V53.7692M16.8462 123H81.4615C89.1086 123 95.3077 116.801 95.3077 109.154V67.6154C95.3077 59.9684 89.1086 53.7692 81.4615 53.7692H16.8462C9.19913 53.7692 3 59.9684 3 67.6154V109.154C3 116.801 9.19913 123 16.8462 123Z" stroke="#FFB86D" stroke-width="5" stroke-linecap="round" stroke-linejoin="round"/>
<path fill-rule="evenodd" clip-rule="evenodd" d="M98.1763 27.1625C100.924 24.0031 104.978 22 109.5 22C114.022 22 118.076 24.0029 120.823 27.162C125 26.8702 129.284 28.3205 132.482 31.5186C135.68 34.7166 137.13 39.0003 136.839 43.1773C139.997 45.9245 142 49.9783 142 54.5C142 59.0226 139.997 63.077 136.837 65.8242C137.128 70.0006 135.678 74.2834 132.48 77.4809C129.283 80.6783 125 82.1287 120.824 81.8376C118.076 84.9969 114.022 87 109.5 87C104.978 87 100.924 84.9971 98.1768 81.8381C93.9997 82.1299 89.716 80.6796 86.5179 77.4815C83.3199 74.2835 81.8695 69.9998 82.1614 65.8227C79.0026 63.0755 77 59.0217 77 54.5C77 49.9781 79.0028 45.9241 82.1618 43.1769C81.8703 39.0002 83.3207 34.7169 86.5185 31.5191C89.7163 28.3213 93.9996 26.871 98.1763 27.1625ZM121.534 48.4531C122.337 47.3296 122.077 45.7682 120.953 44.9657C119.83 44.1631 118.268 44.4234 117.466 45.5469L106.681 60.6455L101.268 55.2322C100.291 54.2559 98.7085 54.2559 97.7322 55.2322C96.7559 56.2085 96.7559 57.7915 97.7322 58.7678L105.232 66.2678C105.752 66.7874 106.474 67.0521 107.206 66.9915C107.939 66.9309 108.607 66.5511 109.034 65.9531L121.534 48.4531Z" fill="#0CBC8B"/>
</svg>
