<svg width="243" height="185" viewBox="0 0 243 185" fill="none" xmlns="http://www.w3.org/2000/svg">
<path d="M0 64.2751V173.789C0 179.726 4.81108 184.54 10.7504 184.54H184.257C190.194 184.54 195.008 179.728 195.008 173.789V64.2751H0Z" fill="#C0C1FF"/>
<path d="M19.1108 19.6871H175.899C182.364 19.6871 187.606 28.2506 187.606 38.8099V132.862C187.606 143.424 182.364 151.985 175.899 151.985H19.1108C12.6462 151.985 7.40332 143.421 7.40332 132.862V38.8099C7.40332 28.2477 12.6433 19.6871 19.1108 19.6871Z" fill="#FFEEE0"/>
<path d="M184.257 184.536H10.7504C4.81393 184.536 0 179.725 0 173.785V64.2712L97.504 135.628L195.008 64.2712V173.785C195.008 179.722 190.194 184.536 184.257 184.536Z" fill="#FFB86D"/>
<path d="M140.367 60.4918H54.6389C51.9463 60.4918 49.7646 58.3102 49.7646 55.6175C49.7646 52.9249 51.9463 50.7432 54.6389 50.7432H140.367C143.06 50.7432 145.241 52.9249 145.241 55.6175C145.241 58.3102 143.06 60.4918 140.367 60.4918Z" fill="#C0C1FF"/>
<path d="M119.116 82.2014H75.8909C73.1982 82.2014 71.0166 80.0198 71.0166 77.3271C71.0166 74.6344 73.1982 72.4528 75.8909 72.4528H119.116C121.809 72.4528 123.99 74.6344 123.99 77.3271C123.99 80.0198 121.806 82.2014 119.116 82.2014Z" fill="#C0C1FF"/>
<path fill-rule="evenodd" clip-rule="evenodd" d="M195.125 0C169.099 0 148 21.0986 148 47.125C148 73.1514 169.099 94.25 195.125 94.25C221.151 94.25 242.25 73.1514 242.25 47.125C242.25 21.0986 221.151 0 195.125 0ZM186.813 33.6867C185.398 32.2711 183.102 32.2711 181.687 33.6867C180.271 35.1024 180.271 37.3976 181.687 38.8133L189.998 47.125L181.687 55.4367C180.271 56.8524 180.271 59.1476 181.687 60.5633C183.102 61.9789 185.398 61.9789 186.813 60.5633L195.125 52.2515L203.437 60.5633C204.852 61.9789 207.148 61.9789 208.563 60.5633C209.979 59.1476 209.979 56.8524 208.563 55.4367L200.252 47.125L208.563 38.8133C209.979 37.3976 209.979 35.1024 208.563 33.6867C207.148 32.2711 204.852 32.2711 203.437 33.6867L195.125 41.9985L186.813 33.6867Z" fill="#BA1A1A"/>
</svg>
