<svg width="224" height="198" viewBox="0 0 224 198" fill="none" xmlns="http://www.w3.org/2000/svg">
<path d="M0 77.275V186.789C0 192.726 4.81108 197.54 10.7504 197.54H184.257C190.194 197.54 195.008 192.728 195.008 186.789V77.275H0Z" fill="#C0C1FF"/>
<path d="M19.1108 32.687H175.899C182.364 32.687 187.606 41.2505 187.606 51.8098V145.862C187.606 156.424 182.364 164.984 175.899 164.984H19.1108C12.6462 164.984 7.40332 156.421 7.40332 145.862V51.8098C7.40332 41.2476 12.6433 32.687 19.1108 32.687Z" fill="#FFEEE0"/>
<path d="M184.257 197.536H10.7504C4.81393 197.536 0 192.724 0 186.785V77.2711L97.504 148.628L195.008 77.2711V186.785C195.008 192.722 190.194 197.536 184.257 197.536Z" fill="#FFB86D"/>
<path d="M140.367 73.4918H54.6389C51.9463 73.4918 49.7646 71.3101 49.7646 68.6175C49.7646 65.9248 51.9463 63.7432 54.6389 63.7432H140.367C143.06 63.7432 145.241 65.9248 145.241 68.6175C145.241 71.3101 143.06 73.4918 140.367 73.4918Z" fill="#C0C1FF"/>
<path d="M119.116 95.2013H75.8909C73.1982 95.2013 71.0166 93.0197 71.0166 90.3271C71.0166 87.6344 73.1982 85.4528 75.8909 85.4528H119.116C121.809 85.4528 123.99 87.6344 123.99 90.3271C123.99 93.0197 121.806 95.2013 119.116 95.2013Z" fill="#C0C1FF"/>
<path fill-rule="evenodd" clip-rule="evenodd" d="M144.792 9.21323C149.695 3.57482 156.93 0 165.001 0C173.071 0 180.306 3.57446 185.209 9.21239C192.663 8.69157 200.308 11.2799 206.015 16.9872C211.723 22.6945 214.311 30.3394 213.79 37.7938C219.428 42.6966 223.002 49.9311 223.002 58.0008C223.002 66.0719 219.426 73.3076 213.787 78.2104C214.307 85.6637 211.718 93.3069 206.012 99.0133C200.306 104.72 192.663 107.308 185.209 106.788C180.307 112.427 173.071 116.002 165.001 116.002C156.931 116.002 149.696 112.427 144.793 106.789C137.338 107.31 129.693 104.722 123.986 99.0145C118.279 93.3071 115.69 85.6622 116.211 78.2077C110.574 73.3049 107 66.0704 107 58.0008C107 49.9307 110.574 42.6958 116.212 37.793C115.692 30.3391 118.28 22.6951 123.987 16.9882C129.694 11.2813 137.338 8.69294 144.792 9.21323ZM186.478 47.2092C187.91 45.2041 187.445 42.4176 185.44 40.9854C183.435 39.5532 180.649 40.0176 179.217 42.0227L159.97 68.9682L150.309 59.3075C148.567 57.5652 145.742 57.5652 144 59.3075C142.257 61.0499 142.257 63.8748 144 65.6172L157.384 79.002C158.312 79.9293 159.6 80.4017 160.907 80.2935C162.214 80.1854 163.407 79.5076 164.17 78.4404L186.478 47.2092Z" fill="#0CBC8B"/>
</svg>
