<svg width="135" height="129" viewBox="0 0 135 129" fill="none" xmlns="http://www.w3.org/2000/svg">
<path d="M104.158 108.021L104.232 105.825C104.297 101.422 106.322 96.9796 110.801 92.638C114.413 89.2191 116.839 86.517 117.203 83.2492C117.594 79.7307 115.671 77.1442 110.976 76.5431C108.036 76.2198 104.574 76.7721 102.295 78.1327L100.596 70.4826C103.834 68.8881 108.875 67.9156 114.167 68.4975C124.585 69.6427 128.702 76.2009 127.956 82.9043C127.285 88.936 123.122 92.7198 119.054 96.4281C115.349 99.9223 113.622 103.209 113.342 107.25L113.231 109.018L104.158 108.021ZM100.761 119.437C101.19 115.583 104.177 113.198 107.873 113.604C111.653 114.02 113.875 116.978 113.531 120.841C113.12 124.527 110.284 127.098 106.419 126.673C102.639 126.258 100.351 123.123 100.761 119.437Z" fill="#A0A3FF"/>
<path d="M42.0557 59.3901H120.631L134.474 70.0002V0H42.0557V59.3901Z" fill="#FFB86D"/>
<path d="M53.4557 17.576L123.075 17.576V12.7355L53.4557 12.7355V17.576Z" fill="white"/>
<path d="M53.4557 31.7262L123.075 31.7262V26.8857L53.4557 26.8857V31.7262Z" fill="white"/>
<path d="M53.4557 45.8763L123.075 45.8763V41.0357L53.4557 41.0357V45.8763Z" fill="white"/>
<path d="M72.6891 117.702H11.3731L0.571289 125.981V71.3574H72.6891V117.702Z" fill="#FFDCBD"/>
<path d="M63.7939 81.2957H9.46729V85.0728H63.7939V81.2957Z" fill="white"/>
<path d="M63.7939 92.3374H9.46729V96.1145H63.7939V92.3374Z" fill="white"/>
<path d="M63.7939 103.379H9.46729V107.157H63.7939V103.379Z" fill="white"/>
</svg>
