<svg width="167" height="171" viewBox="0 0 167 171" fill="none" xmlns="http://www.w3.org/2000/svg">
<path d="M141.447 40.6821C141.447 18.2083 121.626 0 91.9037 0C67.202 0 58.713 13.6311 58.713 13.6311C58.713 13.6311 35.3647 18.6769 35.3647 47.6901C35.3647 74.6594 35.3647 121.061 35.3647 121.061H73.7289H75.685H104.018H134.818V60.6371C137.251 57.6478 141.447 51.0016 141.447 40.6821ZM95.3115 106.388C93.2342 106.388 90.9666 106.005 88.6006 105.338V121.059H54.6545V80.6131C54.4223 79.9646 54.1944 79.2701 53.9726 78.54C38.9232 77.1028 39.5466 52.2317 48.4897 52.2317C48.611 52.2317 48.7301 52.2422 48.8472 52.2589V52.2568C86.4395 64.275 111.721 44.5835 119.992 30.9022C119.992 40.4499 130.559 49.759 134.318 50.6083C133.761 84.728 109.353 106.388 95.3115 106.388Z" fill="#311643"/>
<path d="M88.601 105.338C90.967 106.005 93.2347 106.388 95.312 106.388C109.353 106.388 133.762 84.728 134.316 50.6063C130.557 49.7569 119.991 40.4478 119.991 30.9001C111.719 44.5836 86.4379 64.273 48.8457 52.2547V52.2568C48.7285 52.2401 48.6113 52.2296 48.4879 52.2296C39.5448 52.2296 38.9216 77.1008 53.9711 78.5379C54.1928 79.268 54.4207 79.9625 54.6529 80.611V107.819L28.0664 120.243V153.164H116.416V117.392L88.599 108.917V105.338H88.601Z" fill="#FFDCBD"/>
<path d="M116.418 153.168V117.396L88.6013 108.921V105.34C80.7356 103.12 71.7946 97.744 65.228 92.7275L116.418 153.168Z" fill="#FFB86D"/>
<path d="M70.4706 79.4145C75.5854 79.4145 79.7317 75.2682 79.7317 70.1534C79.7317 65.0387 75.5854 60.8924 70.4706 60.8924C65.3559 60.8924 61.2096 65.0387 61.2096 70.1534C61.2096 75.2682 65.3559 79.4145 70.4706 79.4145Z" fill="#EA9A3D"/>
<path d="M133.126 62.4655C131.953 68.6849 129.984 74.3561 127.499 79.4019C122.602 79.1593 118.706 75.1114 118.706 70.1534C118.706 65.0386 122.853 60.8945 127.967 60.8945C129.875 60.8924 131.652 61.4719 133.126 62.4655Z" fill="#EA9A3D"/>
<path d="M117.461 41.9896C110.7 41.9896 105.117 47.1295 104.414 53.7086C100.738 51.9786 97.4938 52.9158 95.7805 53.7024C95.0734 47.1274 89.4943 41.9896 82.7352 41.9896C75.4992 41.9896 69.6123 47.8763 69.6123 55.1123C69.6123 62.3484 75.4992 68.2351 82.7352 68.2351C89.8102 68.2351 95.5923 62.6078 95.8454 55.5935C96.9353 54.9659 100.398 53.3676 104.351 55.6081C104.613 62.614 110.393 68.2351 117.461 68.2351C124.698 68.2351 130.584 62.3484 130.584 55.1123C130.584 47.8763 124.698 41.9896 117.461 41.9896ZM82.7352 66.5176C76.4468 66.5176 71.3299 61.4007 71.3299 55.1123C71.3299 48.8218 76.4468 43.7049 82.7352 43.7049C89.0257 43.7049 94.1426 48.8218 94.1426 55.1123C94.1426 61.4007 89.0257 66.5176 82.7352 66.5176ZM117.461 66.5176C111.173 66.5176 106.054 61.4007 106.054 55.1123C106.054 48.8218 111.171 43.7049 117.461 43.7049C123.752 43.7049 128.869 48.8218 128.869 55.1123C128.869 61.4007 123.752 66.5176 117.461 66.5176Z" fill="white"/>
<path d="M117.471 58.7335C116.437 58.7335 115.598 57.8946 115.598 56.8612V53.3634C115.598 52.33 116.437 51.4911 117.471 51.4911C118.504 51.4911 119.343 52.33 119.343 53.3634V56.8612C119.345 57.8946 118.506 58.7335 117.471 58.7335Z" fill="#311643"/>
<path d="M83.3068 58.7335C82.2734 58.7335 81.4344 57.8946 81.4344 56.8612V53.3634C81.4344 52.33 82.2734 51.4911 83.3068 51.4911C84.3402 51.4911 85.1791 52.33 85.1791 53.3634V56.8612C85.1791 57.8946 84.3402 58.7335 83.3068 58.7335Z" fill="#311643"/>
<path d="M96.6756 85.7467C93.3327 85.7467 91.0567 84.4895 89.6781 83.3452C87.9397 81.9017 87.2179 80.3265 87.1866 80.2595C86.992 79.8265 87.1846 79.3182 87.6176 79.1236C88.0486 78.9291 88.5569 79.1215 88.7514 79.5504C88.8498 79.7638 91.2241 84.7405 98.1213 83.9434C98.594 83.8891 99.0186 84.2259 99.073 84.6965C99.1274 85.1672 98.7906 85.594 98.3199 85.6484C97.7426 85.7174 97.1965 85.7467 96.6756 85.7467Z" fill="#311643"/>
<path d="M75.9316 133.613C82.379 133.613 87.5356 127.404 91.0124 121.116H54.2466C59.853 127.387 67.5325 133.613 75.9316 133.613Z" fill="white"/>
<path d="M144.425 135.817C138.758 126.995 130.139 120.474 120.108 117.42L95.7415 110C95.7415 111.025 93.9591 116.966 90.7124 122.838C87.2356 129.127 82.0789 135.336 75.6316 135.336C67.2325 135.336 59.553 129.11 53.9466 122.838C48.2565 116.475 44.7021 110.065 44.7021 110.065L22.4606 120.37C12.3733 125.043 5.14562 134.277 3.03276 145.191L0 160.853L166.71 170.5L144.425 135.817Z" fill="#FE9ECC"/>
</svg>
