<svg width="171" height="161" viewBox="0 0 171 161" fill="none" xmlns="http://www.w3.org/2000/svg">
<path d="M18.8336 57.7886C21.5959 91.3069 45.9455 112.32 60.2359 112.32C62.3802 112.32 64.715 111.937 67.1518 111.268V127.986H103.397V85.4809C103.732 84.6015 104.057 83.6265 104.376 82.5853C120.445 81.0502 119.779 54.4944 110.231 54.4944C108.494 54.4944 107.333 56.136 106.602 57.7886L104.232 60.159V48.1614C104.232 48.1614 98.9002 48.6618 88.4001 32.6636C83.87 39.5374 47.7377 50.3276 18.7428 45.4962C18.7406 45.494 18.6674 51.4619 18.8336 57.7886Z" fill="#D9D9D9"/>
<path d="M62.7345 0C87.731 0 92.7307 13.3313 92.7307 13.3313C103.397 13.3313 119.727 32.8297 109.894 54.4922L109.843 54.5431L104.228 60.159V48.1614C104.228 48.1614 98.8956 48.6618 88.3955 32.6635C83.8654 39.5373 47.7331 50.3276 18.7382 45.4962C18.7382 45.4962 18.6629 51.4641 18.829 57.7886C18.829 57.7952 18.829 57.8019 18.829 57.8086C8.00108 26.4788 29.739 0 62.7345 0Z" fill="#3C3C3C"/>
<path d="M73.4828 61.4369C74.5882 61.4369 75.4831 60.5418 75.4831 59.4364V55.7015C75.4831 54.5961 74.5882 53.7015 73.4828 53.7015C72.3774 53.7015 71.4824 54.5961 71.4824 55.7015V59.4364C71.4846 60.5418 72.3796 61.4369 73.4828 61.4369Z" fill="#3C3C3C"/>
<path d="M36.4051 61.4369C37.5105 61.4369 38.4055 60.5418 38.4055 59.4364V55.7015C38.4055 54.5961 37.5105 53.7015 36.4051 53.7015C35.2997 53.7015 34.4048 54.5961 34.4048 55.7015V59.4364C34.407 60.5418 35.3019 61.4369 36.4051 61.4369Z" fill="#3C3C3C"/>
<path d="M58.7796 90.2815C62.3484 90.2815 64.7784 88.9391 66.2515 87.7163C68.1079 86.1746 68.8787 84.4931 68.912 84.4222C69.1202 83.9614 68.9142 83.419 68.4535 83.2107C67.9927 83.0025 67.4521 83.2081 67.2417 83.6667C67.1376 83.8926 64.6034 89.2095 57.2378 88.3567C56.735 88.2991 56.2809 88.6574 56.2211 89.1625C56.1613 89.6676 56.5223 90.1195 57.0251 90.1771C57.6388 90.248 58.2236 90.2815 58.7796 90.2815Z" fill="#3C3C3C"/>
<path d="M86.761 83.5182C92.2224 83.5182 96.6497 79.0906 96.6497 73.6293C96.6497 68.1679 92.2224 63.7408 86.761 63.7408C81.2996 63.7408 76.8723 68.1679 76.8723 73.6293C76.8723 79.0906 81.2996 83.5182 86.761 83.5182Z" fill="#F5F5F5"/>
<path d="M19.8619 65.4201C21.1157 72.0613 23.2157 78.1151 25.8718 83.5047C31.1019 83.2478 35.2598 78.9236 35.2598 73.6293C35.2598 68.1688 30.8338 63.743 25.3733 63.743C23.3331 63.743 21.437 64.3613 19.8619 65.4201Z" fill="#F5F5F5"/>
<path d="M22.3929 57.569C22.3929 65.2957 28.6797 71.5806 36.4042 71.5806C43.9536 71.5806 50.123 65.5792 50.4021 58.0985C54.5933 55.726 58.3237 57.4297 59.4822 58.0876C59.7569 65.5751 65.9285 71.5828 73.4802 71.5828C81.2068 71.5828 87.4914 65.2978 87.4914 57.5712C87.4914 49.8445 81.2046 43.5601 73.4802 43.5601C66.263 43.5601 60.3041 49.045 59.5509 56.065C57.7212 55.2254 54.2588 54.224 50.3334 56.0715C49.5825 49.0492 43.6213 43.5601 36.4019 43.5601C28.6797 43.5578 22.3929 49.8423 22.3929 57.569ZM61.3054 57.569C61.3054 50.8547 66.7681 45.3902 73.4846 45.3902C80.2011 45.3902 85.6638 50.8525 85.6638 57.569C85.6638 64.2855 80.2011 69.7483 73.4846 69.7483C66.7681 69.7483 61.3054 64.2855 61.3054 57.569ZM24.225 57.569C24.225 50.8547 29.6877 45.3902 36.4042 45.3902C43.1207 45.3902 48.5834 50.8525 48.5834 57.569C48.5834 64.2855 43.1207 69.7483 36.4042 69.7483C29.6899 69.7483 24.225 64.2855 24.225 57.569Z" fill="white"/>
<path d="M67.1511 127.984V111.266C75.3474 109.013 84.6779 103.495 91.6912 98.234L67.1511 127.984Z" fill="#F5F5F5"/>
<path d="M67.1989 114.002L12.3326 137.775C8.31417 139.502 2.41901 157.36 0 161H170.5C166.152 153.926 157.28 140.114 149.8 136.49L103.384 114C103.382 114.002 82.331 127.79 67.1989 114.002Z" fill="#D9D9D9"/>
</svg>
