<svg width="279" height="229" viewBox="0 0 279 229" fill="none" xmlns="http://www.w3.org/2000/svg">
<path d="M31.4433 177.604H28.6123V228.958H31.4433V177.604Z" fill="#FFB86D"/>
<path d="M28.4417 142.948C37.5621 142.948 44.9557 135.551 44.9557 126.425C44.9557 117.3 37.5621 109.902 28.4417 109.902C19.3213 109.902 11.9277 117.3 11.9277 126.425C11.9277 135.551 19.3213 142.948 28.4417 142.948Z" fill="#FFB86D"/>
<path d="M38.086 189.03C46.2306 189.03 52.8331 182.424 52.8331 174.275C52.8331 166.126 46.2306 159.52 38.086 159.52C29.9414 159.52 23.3389 166.126 23.3389 174.275C23.3389 182.424 29.9414 189.03 38.086 189.03Z" fill="#FFB86D"/>
<path d="M20.5102 190.028C29.2056 190.028 36.2547 182.975 36.2547 174.275C36.2547 165.574 29.2056 158.521 20.5102 158.521C11.8147 158.521 4.76562 165.574 4.76562 174.275C4.76562 182.975 11.8147 190.028 20.5102 190.028Z" fill="#FFB86D"/>
<path d="M40.1321 156.191C47.442 156.191 53.3678 150.262 53.3678 142.948C53.3678 135.634 47.442 129.705 40.1321 129.705C32.8223 129.705 26.8965 135.634 26.8965 142.948C26.8965 150.262 32.8223 156.191 40.1321 156.191Z" fill="#FFB86D"/>
<path d="M30.0277 164.146C37.3375 164.146 43.2633 158.217 43.2633 150.903C43.2633 143.589 37.3375 137.66 30.0277 137.66C22.7178 137.66 16.792 143.589 16.792 150.903C16.792 158.217 22.7178 164.146 30.0277 164.146Z" fill="#FFB86D"/>
<path d="M45.7943 169.433C53.1041 169.433 59.0299 163.504 59.0299 156.19C59.0299 148.876 53.1041 142.947 45.7943 142.947C38.4844 142.947 32.5586 148.876 32.5586 156.19C32.5586 163.504 38.4844 169.433 45.7943 169.433Z" fill="#FFB86D"/>
<path d="M13.6605 155.72C20.9703 155.72 26.8961 149.791 26.8961 142.477C26.8961 135.163 20.9703 129.234 13.6605 129.234C6.35062 129.234 0.424805 135.163 0.424805 142.477C0.424805 149.791 6.35062 155.72 13.6605 155.72Z" fill="#FFB86D"/>
<path d="M13.6605 172.15C20.9703 172.15 26.8961 166.221 26.8961 158.907C26.8961 151.593 20.9703 145.664 13.6605 145.664C6.35062 145.664 0.424805 151.593 0.424805 158.907C0.424805 166.221 6.35062 172.15 13.6605 172.15Z" fill="#FFB86D"/>
<path d="M78.9039 228.958H20.7543C16.4887 225.552 16.1949 217.878 20.6173 214.452C24.0253 211.811 29.177 212.517 32.3799 215.264C31.7813 213.219 31.7695 211.047 32.3456 208.995C33.3874 205.299 35.7025 201.547 39.2376 200.053C48.2583 196.245 54.6691 204.224 55.9526 208.686C58.2618 205.288 63.429 203.491 66.6716 205.779C70.7797 208.676 70.5937 213.244 67.3168 216.522C71.683 215.707 74.9713 216.336 77.9997 219.588C80.3039 222.063 80.6571 226.282 78.9039 228.958Z" fill="#FFB86D"/>
<path d="M267.08 90.9375H84.8516V199.264H267.08V90.9375Z" fill="#FFDCBD"/>
<path d="M171.783 106.922H111.769V168.108H171.783V106.922Z" fill="#FFB86D"/>
<path d="M171.783 106.922H111.769V168.108H171.783V106.922Z" stroke="#FFDCBD" stroke-width="3.4" stroke-miterlimit="10"/>
<path d="M141.775 107.492V167.539" stroke="#FFDCBD" stroke-width="3.827" stroke-miterlimit="10"/>
<path d="M171.782 137.516H111.769" stroke="#FFDCBD" stroke-width="3.827" stroke-miterlimit="10"/>
<path d="M198.459 106.922V199.052H249.812V106.922H198.459ZM244.768 194.005H200.985V111.968H244.768V194.005Z" fill="#FFDCBD"/>
<path d="M200.031 197.318H248.079V108.659H200.031V197.318Z" fill="#FFB86D"/>
<path d="M203.354 158.754C203.354 159.469 203.934 160.049 204.648 160.049C205.363 160.049 205.942 159.469 205.942 158.754V150.255C205.942 149.54 205.363 148.96 204.648 148.96C203.934 148.96 203.354 149.54 203.354 150.255V158.754Z" fill="#FFDCBD"/>
<path d="M79.7168 93.825L176.003 24.6797L271.873 93.5384" fill="#FFDCBD"/>
<path d="M279 94.8014V101.65C279 101.795 278.96 101.938 278.884 102.061C278.809 102.185 278.7 102.286 278.571 102.352C278.442 102.418 278.298 102.447 278.153 102.436C278.009 102.426 277.87 102.375 277.752 102.29L176.003 29.2095L73.8386 102.575C73.7209 102.66 73.5822 102.71 73.4376 102.721C73.2931 102.732 73.1484 102.703 73.0194 102.636C72.8905 102.57 72.7822 102.47 72.7066 102.346C72.631 102.222 72.5909 102.08 72.5908 101.935V95.0853C72.5909 94.8766 72.6406 94.6709 72.736 94.4853C72.8313 94.2996 72.9695 94.1394 73.1391 94.0178L173.861 21.6898C174.486 21.2412 175.236 21 176.006 21C176.775 21 177.525 21.2412 178.151 21.6898L278.452 93.733C278.622 93.8548 278.76 94.0152 278.855 94.201C278.95 94.3868 279 94.5926 279 94.8014Z" fill="#FFB86D"/>
<path d="M278.077 199.266H73.5133C73.0038 199.266 72.5908 199.679 72.5908 200.189V228.034C72.5908 228.544 73.0038 228.957 73.5133 228.957H278.077C278.586 228.957 278.999 228.544 278.999 228.034V200.189C278.999 199.679 278.586 199.266 278.077 199.266Z" fill="#FFB86D"/>
<path d="M263.728 209.162H184.806V219.059H263.728V209.162Z" fill="#FFB86D"/>
<path opacity="0.39" d="M263.728 209.162H184.806V219.059H263.728V209.162Z" fill="#FFDCBD"/>
<path d="M256.812 199.266H191.722V209.163H256.812V199.266Z" fill="#FFB86D"/>
<path d="M270.339 219.059H178.457V228.956H270.339V219.059Z" fill="#FFB86D"/>
<path d="M46.9201 54.3598L47.1321 51.4747C47.4455 45.6882 50.3385 39.9518 56.4542 34.4747C61.3815 30.1661 64.7115 26.7384 65.3591 22.4602C66.0564 17.8536 63.6615 14.3526 57.5186 13.3187C53.6688 12.7412 49.0873 13.2879 46.0207 14.959L44.1825 4.81087C48.5238 2.88203 55.2029 1.86453 62.1324 2.90404C75.7721 4.95014 80.8464 13.7878 79.5179 22.5641C78.3225 30.4611 72.6524 35.221 67.11 39.8866C62.0568 44.2894 59.6156 48.5213 59.0385 53.8211L58.7997 56.1409L46.9201 54.3598ZM41.8622 69.1949C42.6261 64.149 46.6771 61.1678 51.5168 61.8938C56.466 62.6362 59.2342 66.6414 58.5814 71.703C57.8508 76.5294 53.9869 79.7632 48.9268 79.0041C43.9771 78.2626 41.1317 74.0214 41.8622 69.1949Z" fill="#C0C1FF"/>
</svg>
