<svg width="235" height="161" viewBox="0 0 235 161" fill="none" xmlns="http://www.w3.org/2000/svg">
<path d="M104.53 30.0642C104.53 13.456 89.8821 0 67.9172 0C49.6626 0 43.3892 10.0734 43.3892 10.0734C43.3892 10.0734 26.1348 13.8023 26.1348 35.2431C26.1348 55.1735 26.1348 89.4643 26.1348 89.4643H54.486H55.9315H76.8699H99.631V44.811C101.429 42.6019 104.53 37.6904 104.53 30.0642ZM70.4356 78.621C68.9005 78.621 67.2247 78.3381 65.4762 77.845V89.4628H40.3899V59.5733C40.2183 59.0941 40.0499 58.5808 39.8861 58.0413C28.7645 56.9792 29.2252 38.5994 35.8342 38.5994C35.9238 38.5994 36.0118 38.6071 36.0984 38.6195V38.6179C63.8791 47.4994 82.562 32.9474 88.6747 22.8368C88.6747 29.8926 96.4834 36.7721 99.2615 37.3997C98.8502 62.6142 80.8121 78.621 70.4356 78.621Z" fill="#3C3C3C"/>
<path d="M65.4765 77.8449C67.225 78.338 68.9008 78.621 70.4359 78.621C80.8124 78.621 98.8506 62.6141 99.2603 37.3981C96.4822 36.7704 88.6735 29.8909 88.6735 22.8352C82.5608 32.9473 63.8779 47.4978 36.0971 38.6163V38.6178C36.0106 38.6055 35.924 38.5977 35.8328 38.5977C29.2238 38.5977 28.7633 56.9776 39.8848 58.0397C40.0487 58.5792 40.2171 59.0925 40.3887 59.5717V79.6784L20.7412 88.8598V113.188H86.0315V86.7527L65.475 80.49V77.8449H65.4765Z" fill="#D9D9D9"/>
<path d="M86.0333 113.192V86.7558L65.4768 80.4931V77.8464C59.664 76.2062 53.0566 72.2331 48.2039 68.5259L86.0333 113.192Z" fill="#F5F5F5"/>
<path d="M52.0781 58.6875C55.8579 58.6875 58.922 55.6234 58.922 51.8436C58.922 48.0638 55.8579 44.9996 52.0781 44.9996C48.2983 44.9996 45.2341 48.0638 45.2341 51.8436C45.2341 55.6234 48.2983 58.6875 52.0781 58.6875Z" fill="#F5F5F5"/>
<path d="M98.381 46.1622C97.5137 50.7584 96.0588 54.9494 94.2223 58.6783C90.6032 58.4989 87.7246 55.5075 87.7246 51.8436C87.7246 48.0638 90.7887 45.0012 94.5685 45.0012C95.9785 44.9997 97.2911 45.4279 98.381 46.1622Z" fill="#F5F5F5"/>
<path d="M86.8045 31.0304C81.808 31.0304 77.6818 34.8288 77.1623 39.6908C74.4461 38.4123 72.0484 39.1049 70.7822 39.6862C70.2597 34.8273 66.1367 31.0304 61.1417 31.0304C55.7943 31.0304 51.4438 35.3807 51.4438 40.7282C51.4438 46.0756 55.7943 50.4259 61.1417 50.4259C66.3701 50.4259 70.6431 46.2673 70.8302 41.0837C71.6356 40.6199 74.1942 39.4388 77.1161 41.0945C77.3093 46.2719 81.5807 50.4259 86.8045 50.4259C92.152 50.4259 96.5022 46.0756 96.5022 40.7282C96.5022 35.3807 92.152 31.0304 86.8045 31.0304ZM61.1417 49.1567C56.4946 49.1567 52.7131 45.3753 52.7131 40.7282C52.7131 36.0795 56.4946 32.2981 61.1417 32.2981C65.7904 32.2981 69.5718 36.0795 69.5718 40.7282C69.5718 45.3753 65.7904 49.1567 61.1417 49.1567ZM86.8045 49.1567C82.1574 49.1567 78.3744 45.3753 78.3744 40.7282C78.3744 36.0795 82.1558 32.2981 86.8045 32.2981C91.4532 32.2981 95.2346 36.0795 95.2346 40.7282C95.2346 45.3753 91.4532 49.1567 86.8045 49.1567Z" fill="white"/>
<path d="M86.8111 43.4042C86.0474 43.4042 85.4275 42.7843 85.4275 42.0206V39.4358C85.4275 38.6721 86.0474 38.0521 86.8111 38.0521C87.5749 38.0521 88.1946 38.6721 88.1946 39.4358V42.0206C88.1962 42.7843 87.5764 43.4042 86.8111 43.4042Z" fill="#3C3C3C"/>
<path d="M61.5641 43.4042C60.8004 43.4042 60.1804 42.7843 60.1804 42.0206V39.4358C60.1804 38.6721 60.8004 38.0521 61.5641 38.0521C62.3278 38.0521 62.9477 38.6721 62.9477 39.4358V42.0206C62.9477 42.7843 62.3278 43.4042 61.5641 43.4042Z" fill="#3C3C3C"/>
<path d="M71.4438 63.3671C68.9733 63.3671 67.2914 62.438 66.2726 61.5924C64.9879 60.5257 64.4545 59.3615 64.4313 59.3121C64.2875 58.9921 64.4298 58.6164 64.7498 58.4726C65.0683 58.3288 65.444 58.4711 65.5877 58.788C65.6604 58.9457 67.4151 62.6235 72.5121 62.0345C72.8615 61.9943 73.1752 62.2432 73.2154 62.591C73.2556 62.9389 73.0067 63.2543 72.6589 63.2945C72.2322 63.3455 71.8287 63.3671 71.4438 63.3671Z" fill="#3C3C3C"/>
<path d="M56.1137 98.7403C60.8783 98.7403 64.6891 94.1519 67.2584 89.5048H40.0884C44.2315 94.1395 49.9067 98.7403 56.1137 98.7403Z" fill="white"/>
<path d="M106.731 100.369C102.543 93.8496 96.1733 89.0309 88.7605 86.7738L70.7533 81.2903C70.7533 82.0478 69.436 86.4383 67.0367 90.7778C64.4674 95.425 60.6566 100.013 55.892 100.013C49.685 100.013 44.0098 95.4126 39.8667 90.7778C35.6617 86.075 33.035 81.3382 33.035 81.3382L16.5985 88.9536C9.14391 92.4072 3.80263 99.2311 2.24122 107.296L0 118.871L123.2 126L106.731 100.369Z" fill="#D9D9D9"/>
<path d="M124.686 85.9955C126.694 110.354 144.389 125.624 154.774 125.624C156.332 125.624 158.029 125.345 159.8 124.859V137.009H186.139V106.12C186.382 105.481 186.619 104.772 186.851 104.015C198.528 102.9 198.044 83.6016 191.106 83.6016C189.844 83.6016 189 84.7946 188.469 85.9955L186.746 87.7181V78.9993C186.746 78.9993 182.871 79.363 175.241 67.7369C171.949 72.7322 145.691 80.5735 124.62 77.0625C124.619 77.0609 124.566 81.3979 124.686 85.9955Z" fill="#D9D9D9"/>
<path d="M156.59 44C174.755 44 178.388 53.688 178.388 53.688C186.139 53.688 198.007 67.8576 190.861 83.6L190.824 83.6369L186.743 87.718V78.9993C186.743 78.9993 182.868 79.3629 175.238 67.7369C171.946 72.7321 145.688 80.5734 124.617 77.0625C124.617 77.0625 124.562 81.3994 124.683 85.9954C124.683 86.0002 124.683 86.0051 124.683 86.01C116.814 63.2424 132.612 44 156.59 44Z" fill="#3C3C3C"/>
<path d="M164.4 88.6468C165.204 88.6468 165.854 87.9963 165.854 87.193V84.4788C165.854 83.6755 165.204 83.0254 164.4 83.0254C163.597 83.0254 162.947 83.6755 162.947 84.4788V87.193C162.948 87.9963 163.599 88.6468 164.4 88.6468Z" fill="#3C3C3C"/>
<path d="M137.456 88.6468C138.259 88.6468 138.91 87.9963 138.91 87.193V84.4788C138.91 83.6755 138.259 83.0254 137.456 83.0254C136.653 83.0254 136.002 83.6755 136.002 84.4788V87.193C136.004 87.9963 136.654 88.6468 137.456 88.6468Z" fill="#3C3C3C"/>
<path d="M153.716 109.608C156.309 109.608 158.075 108.633 159.145 107.744C160.494 106.624 161.055 105.402 161.079 105.35C161.23 105.015 161.08 104.621 160.746 104.47C160.411 104.319 160.018 104.468 159.865 104.801C159.789 104.965 157.948 108.829 152.595 108.209C152.23 108.168 151.9 108.428 151.856 108.795C151.813 109.162 152.075 109.491 152.441 109.532C152.887 109.584 153.312 109.608 153.716 109.608Z" fill="#3C3C3C"/>
<path d="M174.05 104.693C178.019 104.693 181.236 101.476 181.236 97.507C181.236 93.5382 178.019 90.321 174.05 90.321C170.081 90.321 166.864 93.5382 166.864 97.507C166.864 101.476 170.081 104.693 174.05 104.693Z" fill="#F5F5F5"/>
<path d="M125.434 91.5414C126.345 96.3676 127.871 100.767 129.801 104.684C133.602 104.497 136.624 101.354 136.624 97.507C136.624 93.5389 133.407 90.3226 129.439 90.3226C127.956 90.3226 126.578 90.7719 125.434 91.5414Z" fill="#F5F5F5"/>
<path d="M127.273 85.8358C127.273 91.4508 131.842 96.0182 137.455 96.0182C142.941 96.0182 147.425 91.6569 147.627 86.2206C150.673 84.4965 153.384 85.7346 154.226 86.2127C154.426 91.6539 158.911 96.0197 164.398 96.0197C170.013 96.0197 174.581 91.4524 174.581 85.8374C174.581 80.2224 170.012 75.6554 164.398 75.6554C159.154 75.6554 154.823 79.6413 154.276 84.7428C152.946 84.1327 150.43 83.4049 147.578 84.7475C147.032 79.6444 142.7 75.6554 137.453 75.6554C131.842 75.6538 127.273 80.2208 127.273 85.8358ZM155.551 85.8358C155.551 80.9565 159.521 76.9854 164.402 76.9854C169.283 76.9854 173.252 80.9549 173.252 85.8358C173.252 90.7168 169.283 94.6866 164.402 94.6866C159.521 94.6866 155.551 90.7168 155.551 85.8358ZM128.604 85.8358C128.604 80.9565 132.574 76.9854 137.455 76.9854C142.336 76.9854 146.306 80.9549 146.306 85.8358C146.306 90.7168 142.336 94.6866 137.455 94.6866C132.576 94.6866 128.604 90.7168 128.604 85.8358Z" fill="white"/>
<path d="M159.799 137.007V124.858C165.756 123.22 172.536 119.211 177.633 115.387L159.799 137.007Z" fill="#F5F5F5"/>
<path d="M159.872 127.002L119.969 144.199C117.047 145.448 112.759 158.367 111 161H235C231.837 155.882 225.386 145.891 219.945 143.269L186.189 127C186.187 127.002 170.877 136.976 159.872 127.002Z" fill="#D9D9D9"/>
</svg>
