<svg width="279" height="229" viewBox="0 0 279 229" fill="none" xmlns="http://www.w3.org/2000/svg">
<path d="M31.4443 177.602H28.6133V228.956H31.4443V177.602Z" fill="#FFB86D"/>
<path d="M28.4437 142.948C37.5641 142.948 44.9576 135.551 44.9576 126.425C44.9576 117.3 37.5641 109.902 28.4437 109.902C19.3232 109.902 11.9297 117.3 11.9297 126.425C11.9297 135.551 19.3232 142.948 28.4437 142.948Z" fill="#FFB86D"/>
<path d="M38.087 189.03C46.2316 189.03 52.8341 182.424 52.8341 174.275C52.8341 166.126 46.2316 159.52 38.087 159.52C29.9423 159.52 23.3398 166.126 23.3398 174.275C23.3398 182.424 29.9423 189.03 38.087 189.03Z" fill="#FFB86D"/>
<path d="M20.5102 190.03C29.2056 190.03 36.2547 182.977 36.2547 174.276C36.2547 165.576 29.2056 158.523 20.5102 158.523C11.8147 158.523 4.76562 165.576 4.76562 174.276C4.76562 182.977 11.8147 190.03 20.5102 190.03Z" fill="#FFB86D"/>
<path d="M40.1341 156.193C47.444 156.193 53.3698 150.264 53.3698 142.95C53.3698 135.636 47.444 129.707 40.1341 129.707C32.8242 129.707 26.8984 135.636 26.8984 142.95C26.8984 150.264 32.8242 156.193 40.1341 156.193Z" fill="#FFB86D"/>
<path d="M30.0286 164.146C37.3385 164.146 43.2643 158.217 43.2643 150.903C43.2643 143.589 37.3385 137.66 30.0286 137.66C22.7188 137.66 16.793 143.589 16.793 150.903C16.793 158.217 22.7188 164.146 30.0286 164.146Z" fill="#FFB86D"/>
<path d="M45.7943 169.435C53.1041 169.435 59.0299 163.506 59.0299 156.192C59.0299 148.878 53.1041 142.949 45.7943 142.949C38.4844 142.949 32.5586 148.878 32.5586 156.192C32.5586 163.506 38.4844 169.435 45.7943 169.435Z" fill="#FFB86D"/>
<path d="M13.6614 155.72C20.9713 155.72 26.8971 149.791 26.8971 142.477C26.8971 135.163 20.9713 129.234 13.6614 129.234C6.35159 129.234 0.425781 135.163 0.425781 142.477C0.425781 149.791 6.35159 155.72 13.6614 155.72Z" fill="#FFB86D"/>
<path d="M13.6614 172.15C20.9713 172.15 26.8971 166.221 26.8971 158.907C26.8971 151.593 20.9713 145.664 13.6614 145.664C6.35159 145.664 0.425781 151.593 0.425781 158.907C0.425781 166.221 6.35159 172.15 13.6614 172.15Z" fill="#FFB86D"/>
<path d="M78.9039 228.96H20.7543C16.4887 225.554 16.1949 217.88 20.6173 214.454C24.0253 211.813 29.177 212.519 32.3799 215.266C31.7813 213.221 31.7695 211.049 32.3456 208.997C33.3874 205.301 35.7025 201.549 39.2376 200.055C48.2583 196.247 54.6691 204.226 55.9526 208.687C58.2618 205.289 63.429 203.493 66.6716 205.781C70.7797 208.678 70.5937 213.246 67.3168 216.524C71.683 215.709 74.9713 216.338 77.9997 219.59C80.3039 222.065 80.6571 226.284 78.9039 228.96Z" fill="#FFB86D"/>
<path d="M267.08 90.9375H84.8516V199.264H267.08V90.9375Z" fill="#FFDCBD"/>
<path d="M171.784 106.922H111.77V168.108H171.784V106.922Z" fill="#FFB86D"/>
<path d="M171.784 106.922H111.77V168.108H171.784V106.922Z" stroke="#FFDCBD" stroke-width="3.4" stroke-miterlimit="10"/>
<path d="M141.773 107.492V167.539" stroke="#FFDCBD" stroke-width="3.827" stroke-miterlimit="10"/>
<path d="M171.779 137.516H111.766" stroke="#FFDCBD" stroke-width="3.827" stroke-miterlimit="10"/>
<path d="M198.457 106.922V199.052H249.81V106.922H198.457ZM244.766 194.005H200.983V111.968H244.766V194.005Z" fill="#FFDCBD"/>
<path d="M200.03 197.32H248.078V108.661H200.03V197.32Z" fill="#FFB86D"/>
<path d="M203.353 158.756C203.353 159.471 203.933 160.051 204.647 160.051C205.362 160.051 205.941 159.471 205.941 158.756V150.257C205.941 149.542 205.362 148.962 204.647 148.962C203.933 148.962 203.353 149.542 203.353 150.257V158.756Z" fill="#FFDCBD"/>
<path d="M79.7148 93.825L176.001 24.6797L271.871 93.5384" fill="#FFDCBD"/>
<path d="M278.999 94.8014V101.65C278.999 101.795 278.959 101.938 278.883 102.061C278.808 102.185 278.699 102.286 278.57 102.352C278.442 102.418 278.297 102.447 278.152 102.436C278.008 102.426 277.869 102.375 277.751 102.29L176.002 29.2095L73.8377 102.575C73.7199 102.66 73.5812 102.71 73.4367 102.721C73.2921 102.732 73.1474 102.703 73.0185 102.636C72.8895 102.57 72.7812 102.47 72.7056 102.346C72.63 102.222 72.59 102.08 72.5898 101.935V95.0853C72.5899 94.8766 72.6397 94.6709 72.735 94.4853C72.8304 94.2996 72.9685 94.1394 73.1381 94.0178L173.86 21.6898C174.485 21.2412 175.235 21 176.005 21C176.774 21 177.524 21.2412 178.15 21.6898L278.451 93.733C278.621 93.8548 278.759 94.0152 278.854 94.201C278.949 94.3868 278.999 94.5926 278.999 94.8014Z" fill="#FFB86D"/>
<path d="M278.076 199.266H73.5123C73.0029 199.266 72.5898 199.679 72.5898 200.189V228.034C72.5898 228.544 73.0029 228.957 73.5123 228.957H278.076C278.585 228.957 278.998 228.544 278.998 228.034V200.189C278.998 199.679 278.585 199.266 278.076 199.266Z" fill="#FFB86D"/>
<path d="M263.727 209.164H184.805V219.061H263.727V209.164Z" fill="#FFB86D"/>
<path opacity="0.39" d="M263.727 209.164H184.805V219.061H263.727V209.164Z" fill="#FFDCBD"/>
<path d="M256.813 199.266H191.723V209.163H256.813V199.266Z" fill="#FFB86D"/>
<path d="M270.339 219.059H178.457V228.956H270.339V219.059Z" fill="#FFB86D"/>
<path d="M46.9201 54.3627L47.1321 51.4776C47.4455 45.6911 50.3385 39.9547 56.4542 34.4776C61.3815 30.169 64.7115 26.7414 65.3591 22.4631C66.0564 17.8565 63.6615 14.3555 57.5186 13.3216C53.6688 12.7441 49.0873 13.2908 46.0207 14.962L44.1825 4.8138C48.5238 2.88496 55.2029 1.86746 62.1324 2.90697C75.7721 4.95307 80.8464 13.7907 79.5179 22.567C78.3225 30.4641 72.6524 35.2239 67.11 39.8895C62.0568 44.2923 59.6156 48.5243 59.0385 53.824L58.7997 56.1438L46.9201 54.3627ZM41.8622 69.1979C42.6261 64.152 46.6771 61.1707 51.5168 61.8967C56.466 62.6391 59.2342 66.6444 58.5814 71.7059C57.8508 76.5324 53.9869 79.7661 48.9268 79.0071C43.9771 78.2656 41.1317 74.0243 41.8622 69.1979Z" fill="#C0C1FF"/>
</svg>
