<svg width="197" height="218" viewBox="0 0 197 218" fill="none" xmlns="http://www.w3.org/2000/svg">
<path d="M27.0436 215.188C19.9924 212.998 13.1513 210.137 6.9175 202.129C5.63834 200.488 4.43645 198.385 5.13743 196.421C5.66469 194.943 7.19091 193.995 8.7417 193.754C9.31932 193.67 9.90479 193.654 10.4862 193.706C10.4894 193.706 10.4922 193.708 10.4929 193.706C11.3867 193.798 12.2702 193.972 13.1324 194.225L13.3784 194.296C17.4925 195.468 21.4116 197.242 25.009 199.56C25.335 199.768 25.7216 199.86 26.1061 199.82C26.4905 199.78 26.8502 199.611 27.1266 199.34C27.403 199.069 27.5799 198.713 27.6284 198.328C27.677 197.944 27.5945 197.555 27.3943 197.223C27.0273 196.623 26.6003 196.061 26.1197 195.547C25.411 194.804 24.6346 194.13 23.8007 193.532C22.692 192.722 21.509 191.998 20.352 191.258C16.0491 188.512 11.9727 185.426 8.16176 182.028C5.44182 179.6 2.7817 176.905 1.48902 173.492C0.89519 171.923 0.624977 170.113 1.33344 168.592C2.50259 166.095 5.81421 165.394 8.5224 165.913C13.268 166.823 17.0592 170.309 20.421 173.784C23.209 176.669 26.333 179.864 30.3381 180.043C31.0209 180.107 31.7073 179.969 32.3126 179.646C33.4554 178.952 33.7487 177.345 33.3418 176.07C32.9349 174.794 31.9922 173.775 31.0825 172.796C25.7954 167.112 20.5926 161.2 17.1593 154.236C13.7259 147.272 12.2057 139.05 14.5913 131.655C15.2909 129.494 16.3419 127.39 17.9813 125.82C19.6207 124.251 21.9202 123.265 24.1709 123.566C27.2373 123.97 29.5467 126.562 31.1003 129.24C36.4405 138.428 36.1141 149.684 37.6182 160.208C38.039 163.154 38.6507 166.175 40.4022 168.6C40.5637 168.834 40.7731 169.029 41.0164 169.175C42.4575 170.011 43.7509 168.325 44.2917 166.894C46.4277 161.233 46.9618 154.759 50.7864 150.074C52.246 148.29 54.3109 146.8 56.6125 146.814C59.425 146.834 61.8299 149.186 62.6498 151.88C63.4697 154.574 62.9795 157.5 62.1008 160.175C60.4696 165.136 57.5456 169.593 54.1005 173.51C52.2849 175.579 50.2303 177.668 49.686 180.366C49.5192 181.283 49.589 182.227 49.8889 183.11C50.1888 183.992 50.7087 184.783 51.3995 185.408C51.7225 185.689 52.0986 185.903 52.5056 186.036C52.9125 186.17 53.3421 186.22 53.7687 186.184C54.6911 186.099 55.526 185.628 56.3302 185.169C56.6677 184.977 57.0066 184.781 57.3473 184.589C58.6907 183.823 60.0342 183.056 61.3778 182.288C64.7937 180.335 68.9185 178.34 72.4768 180.021C74.2925 180.881 75.4819 182.571 76.0416 184.511C76.5424 186.272 76.5424 188.137 76.0416 189.898C74.9817 193.559 68.3015 203.747 65.546 206.374C62.3287 209.443 51.1695 222.68 27.0436 215.188Z" fill="#A0A3FF"/>
<path d="M194.09 2.29688H74.1445V214.399H194.09V2.29688Z" fill="#F2EFFF"/>
<path d="M191.721 212.998H108.414V15.9089L191.721 5.20703V212.998Z" fill="#FFB86D"/>
<path d="M191.722 5.20695V212.998H76.3738V5.20695H191.722ZM196.17 0.75H71.9258V217.455H196.17V0.75Z" fill="#FFB86D"/>
<path d="M118.925 114.335C121.809 114.335 124.146 111.993 124.146 109.103C124.146 106.214 121.809 103.871 118.925 103.871C116.041 103.871 113.703 106.214 113.703 109.103C113.703 111.993 116.041 114.335 118.925 114.335Z" fill="#F2EFFF"/>
</svg>
