<svg width="178" height="223" viewBox="0 0 178 223" fill="none" xmlns="http://www.w3.org/2000/svg">
<path d="M118.891 28.7718C100.553 31.8273 77.704 25.0034 74.8391 20.6562C68.2 30.7738 64.8266 30.457 64.8266 30.457V38.0445L63.3276 36.5454C62.8653 35.4989 62.1312 34.4624 61.0329 34.4624C54.9948 34.4624 54.5732 51.2567 64.7355 52.2276C64.9359 52.886 65.1432 53.5009 65.3547 54.0571V80.9382H88.2768V70.3655C89.8178 70.7886 91.2944 71.0311 92.6505 71.0311C101.688 71.0311 117.088 57.7416 118.834 36.544C118.939 32.5457 118.891 28.7718 118.891 28.7718Z" fill="#FFDCBD"/>
<path d="M91.0693 0C75.2611 0 72.0992 8.43092 72.0992 8.43092C65.3537 8.43092 55.026 20.762 61.2448 34.4618L61.277 34.4939L64.8283 38.0452V30.4577C64.8283 30.4577 68.2004 30.7745 74.8409 20.657C77.7058 25.0041 100.556 31.828 118.893 28.7725C118.893 28.7725 118.941 32.5464 118.836 36.5461C118.836 36.5503 118.836 36.5545 118.836 36.5587C125.684 16.7453 111.936 0 91.0693 0Z" fill="black"/>
<path d="M84.2748 42.3328C83.5758 42.3328 83.0098 41.7667 83.0098 41.0677V38.7043C83.0098 38.0052 83.5758 37.4395 84.2748 37.4395C84.9739 37.4395 85.5398 38.0052 85.5398 38.7043V41.0677C85.5398 41.7667 84.9725 42.3328 84.2748 42.3328Z" fill="black"/>
<path d="M107.722 42.3328C107.023 42.3328 106.457 41.7667 106.457 41.0677V38.7043C106.457 38.0052 107.023 37.4395 107.722 37.4395C108.421 37.4395 108.987 38.0052 108.987 38.7043V41.0677C108.987 41.7667 108.421 42.3328 107.722 42.3328Z" fill="black"/>
<path d="M93.5686 57.0956C91.3117 57.0956 89.7749 56.2464 88.8433 55.4731C87.6693 54.498 87.1818 53.435 87.1608 53.3901C87.0291 53.0987 87.1593 52.7553 87.4507 52.6237C87.7421 52.492 88.084 52.6223 88.2157 52.9123C88.2815 53.0552 89.8842 56.4174 94.5423 55.878C94.8603 55.8416 95.1475 56.0686 95.1839 56.388C95.2203 56.706 94.9934 56.9932 94.6754 57.0296C94.2901 57.0745 93.9202 57.0956 93.5686 57.0956Z" fill="black"/>
<path d="M75.8768 52.8204C79.3307 52.8204 82.1306 50.0203 82.1306 46.5664C82.1306 43.1126 79.3307 40.3125 75.8768 40.3125C72.4229 40.3125 69.623 43.1126 69.623 46.5664C69.623 50.0203 72.4229 52.8204 75.8768 52.8204Z" fill="#EA9A3D"/>
<path d="M118.185 41.3747C117.392 45.5747 116.064 49.4036 114.384 52.8121C111.077 52.6482 108.447 49.9149 108.447 46.5667C108.447 43.1134 111.246 40.3145 114.7 40.3145C115.99 40.3131 117.189 40.7037 118.185 41.3747Z" fill="#EA9A3D"/>
<path d="M107.722 27.5469C103.156 27.5469 99.3863 31.0183 98.9114 35.4593C96.4289 34.2909 94.2378 34.9242 93.0821 35.4552C92.6058 31.0156 88.8373 27.5469 84.273 27.5469C79.3866 27.5469 75.4121 31.5213 75.4121 36.4077C75.4121 41.2942 79.388 45.2686 84.273 45.2686C89.0488 45.2686 92.9532 41.4692 93.1255 36.734C93.8596 36.3179 96.2174 35.2408 98.8679 36.7412C99.0445 41.4722 102.948 45.2672 107.72 45.2672C112.607 45.2672 116.581 41.2928 116.581 36.4064C116.583 31.5227 112.608 27.5469 107.722 27.5469ZM84.273 44.1115C80.0254 44.1115 76.5706 40.6567 76.5706 36.4091C76.5706 32.1629 80.0254 28.7067 84.273 28.7067C88.5193 28.7067 91.9754 32.1615 91.9754 36.4091C91.9754 40.6553 88.5193 44.1115 84.273 44.1115ZM107.722 44.1115C103.474 44.1115 100.02 40.6567 100.02 36.4091C100.02 32.1629 103.474 28.7067 107.722 28.7067C111.97 28.7067 115.424 32.1615 115.424 36.4091C115.424 40.6553 111.97 44.1115 107.722 44.1115Z" fill="white"/>
<path d="M88.2774 80.9395V70.3668C83.0939 68.942 77.1932 65.4522 72.7578 62.125L88.2774 80.9395Z" fill="#FFB86D"/>
<path d="M118.246 134.024L124.196 220.785H34.3813L39.885 158.96L38.6644 125.967L34.0026 130.606L13.2773 114.701L24.4136 96.5844C27.169 92.1044 31.1491 88.5025 35.8867 86.2072L61.4323 73.8303L62.3666 73.3779L65.2833 71.9648C65.2833 71.9648 78.6137 80.698 88.197 71.9648L93.3162 73.8918L94.3572 74.2826L121.432 84.4707C125.672 86.0658 129.123 89.2475 131.052 93.3424L142.535 117.726L118.246 134.024Z" fill="#A0A3FF"/>
<path d="M105.074 132.052H86.3669C85.7454 132.052 85.2402 131.523 85.2402 130.868V94.1099C85.2402 93.4568 85.7441 92.9258 86.3669 92.9258H105.074C105.696 92.9258 106.201 93.4554 106.201 94.1099V130.868C106.201 131.523 105.697 132.052 105.074 132.052Z" fill="#0A008A"/>
<path d="M159.113 156.053L142.758 117.725L130.277 125.997L112.744 110.765L109.16 98.5838C109.11 98.1947 108.802 97.8892 108.411 97.8378C106.692 97.6127 105.219 99.0479 105.415 100.754L106.031 106.09L99.5243 106.945C97.7694 107.176 95.9852 107.023 94.2962 106.496L88.2425 104.609C86.4246 104.042 84.4917 105.063 83.9535 106.875L81.617 106.339C80.4761 106.078 79.3338 106.764 79.0394 107.887L79.0226 107.948C78.7703 108.914 79.2216 109.924 80.1144 110.385C79.6379 112.232 80.7438 114.118 82.5995 114.619L82.6528 114.633C82.1524 116.494 83.0789 118.44 84.8464 119.241L89.4269 121.316C91.1495 122.097 93.0375 122.451 94.9283 122.348L105.334 121.509L140.668 167.293L140.675 167.301C143.8 170.999 149.128 172.27 153.695 170.153C159.04 167.677 161.44 161.435 159.113 156.053Z" fill="#FFDCBD"/>
<path d="M54.5314 213.423L45.408 209.354C44.776 209.072 44.2869 208.546 44.0501 207.896L42.7274 204.257L47.3374 205.387L48.8073 208.542C49.302 209.603 50.5519 210.081 51.6295 209.617L49.7097 203.825C49.351 202.904 48.6588 202.151 47.7704 201.714L38.1369 196.978L21.5182 143.11L34.2148 130.488L13.5142 114.584L1.4103 135.635C-0.254377 138.529 -0.456143 142.037 0.862426 145.103L34.4558 221.873L41.1229 222.179C41.9244 222.217 42.6811 221.811 43.0931 221.123L43.8189 219.912L47.3277 220.199C48.0787 220.261 48.8088 219.93 49.2586 219.324L50.0839 218.211L50.5757 218.341C51.9195 218.696 53.3306 218.082 53.9877 216.858L56.4231 217.671C56.9724 215.982 56.1569 214.147 54.5314 213.423Z" fill="#FFDCBD"/>
<path d="M152.668 67.9838L152.742 65.7868C152.807 61.384 154.832 56.9419 159.311 52.6003C162.924 49.1814 165.349 46.4792 165.713 43.2115C166.105 39.693 164.181 37.1065 159.486 36.5054C156.546 36.1821 153.084 36.7344 150.806 38.095L149.106 30.4449C152.344 28.8504 157.385 27.8779 162.678 28.4598C173.095 29.605 177.212 36.1632 176.466 42.8665C175.795 48.8983 171.633 52.682 167.564 56.3904C163.859 59.8845 162.132 63.1708 161.853 67.212L161.741 68.9805L152.668 67.9838ZM149.272 79.399C149.7 75.5449 152.687 73.1601 156.383 73.5665C160.163 73.982 162.385 76.9402 162.041 80.8028C161.631 84.4892 158.794 87.0602 154.929 86.6353C151.149 86.2205 148.861 83.0854 149.272 79.399Z" fill="#0A008A"/>
</svg>
