<svg width="132" height="122" viewBox="0 0 132 122" fill="none" xmlns="http://www.w3.org/2000/svg">
<path d="M99.2327 118.307C107.825 115.692 116.162 112.272 123.757 102.71C125.316 100.75 126.78 98.2388 125.927 95.893C125.283 94.1277 123.424 92.9966 121.535 92.7075C120.831 92.6071 120.118 92.5879 119.41 92.6501C119.406 92.6501 119.402 92.6501 119.402 92.6501C118.313 92.7595 117.236 92.9669 116.186 93.2697L115.885 93.3534C110.872 94.7525 106.096 96.8707 101.712 99.6395C101.315 99.8889 100.843 99.9988 100.374 99.9513C99.9055 99.9039 99.4667 99.7019 99.1296 99.3783C98.7925 99.0548 98.5768 98.6286 98.5178 98.1693C98.4588 97.71 98.5598 97.2445 98.8045 96.8488C99.2518 96.1317 99.7722 95.4612 100.358 94.8475C101.221 93.9605 102.166 93.1548 103.182 92.4408C104.533 91.4728 105.975 90.6099 107.385 89.7251C112.628 86.4456 117.595 82.7591 122.24 78.7009C125.554 75.8011 128.795 72.5831 130.371 68.5061C131.094 66.6313 131.424 64.4699 130.561 62.653C129.136 59.6691 125.1 58.8344 121.8 59.4535C116.017 60.5413 111.397 64.7045 107.301 68.854C103.903 72.3023 100.096 76.1199 95.2156 76.3321C94.3837 76.4084 93.5472 76.2436 92.8096 75.8581C91.4171 75.0307 91.0592 73.1107 91.5553 71.5873C92.0514 70.064 93.2001 68.8463 94.3087 67.6767C100.751 60.8888 107.091 53.8273 111.275 45.5096C115.459 37.192 117.312 27.3714 114.405 18.5408C113.552 15.9589 112.274 13.447 110.273 11.5713C108.273 9.69558 105.474 8.51971 102.731 8.87889C98.9948 9.36218 96.181 12.4595 94.2874 15.6566C87.7796 26.6292 88.1775 40.0737 86.3449 52.6427C85.8315 56.1615 85.0852 59.7703 82.9522 62.6686C82.7554 62.9471 82.5 63.1809 82.2034 63.3544C80.4471 64.3531 78.8712 62.3391 78.2116 60.6289C75.6079 53.8677 74.9577 46.1355 70.2969 40.5395C68.5193 38.4097 66.0013 36.6289 63.1978 36.6459C59.7725 36.6688 56.8397 39.4785 55.8406 42.697C54.8415 45.9155 55.4392 49.41 56.5096 52.6052C58.4974 58.5302 62.06 63.8513 66.2585 68.5309C68.4727 71.0013 70.9748 73.4952 71.6389 76.7195C71.8422 77.8148 71.7571 78.943 71.3917 79.9969C71.0263 81.0509 70.3927 81.9956 69.551 82.7414C69.1572 83.0774 68.6988 83.3324 68.2029 83.4912C67.707 83.65 67.1836 83.7095 66.6638 83.6662C65.5474 83.4846 64.4831 83.0716 63.5418 82.4548C63.1299 82.2246 62.7171 81.991 62.3028 81.7622C60.6655 80.8472 59.0283 79.9308 57.3912 79.0129C53.2285 76.6806 48.2019 74.2977 43.8662 76.3063C41.6515 77.3328 40.2039 79.3521 39.522 81.6688C38.9119 83.7708 38.9119 85.9984 39.522 88.1005C40.8134 92.4729 48.9537 104.641 52.3117 107.779C56.2346 111.446 69.833 127.256 99.2327 118.307Z" fill="#C0C1FF"/>
<path d="M42.6621 83.7965C66.2237 83.7965 85.3242 65.038 85.3242 41.8983C85.3242 18.7585 66.2237 0 42.6621 0C19.1005 0 0 18.7585 0 41.8983C0 65.038 19.1005 83.7965 42.6621 83.7965Z" fill="#FFEEE0"/>
<path d="M42.6621 18.4899H42.6626C44.5516 18.4899 46.083 16.986 46.083 15.1307V12.0144C46.083 10.1592 44.5516 8.65525 42.6626 8.65525H42.6621C40.773 8.65525 39.2417 10.1592 39.2417 12.0144V15.1307C39.2417 16.986 40.773 18.4899 42.6621 18.4899Z" fill="#FFB86D"/>
<path d="M34.6648 64.2818C34.6565 65.3184 34.8572 66.3464 35.2554 67.3064C35.6536 68.2665 36.2413 69.1397 36.9848 69.8756C37.7282 70.6115 38.6126 71.1955 39.587 71.5941C40.5614 71.9927 41.6065 72.1979 42.6621 72.1979C43.7176 72.1979 44.7627 71.9927 45.7371 71.5941C46.7115 71.1955 47.5959 70.6115 48.3393 69.8756C49.0828 69.1397 49.6705 68.2665 50.0687 67.3064C50.4669 66.3464 50.6676 65.3184 50.6593 64.2818" fill="#FFEEE0"/>
<path d="M34.6648 64.2818C34.6565 65.3184 34.8572 66.3464 35.2554 67.3064C35.6536 68.2665 36.2413 69.1397 36.9848 69.8756C37.7282 70.6115 38.6126 71.1955 39.587 71.5941C40.5614 71.9927 41.6065 72.1979 42.6621 72.1979C43.7176 72.1979 44.7627 71.9927 45.7371 71.5941C46.7115 71.1955 47.5959 70.6115 48.3393 69.8756C49.0828 69.1397 49.6705 68.2665 50.0687 67.3064C50.4669 66.3464 50.6676 65.3184 50.6593 64.2818" fill="white"/>
<path d="M17.5911 65.2455C17.1951 65.2455 16.8064 65.1407 16.4659 64.942C16.1255 64.7434 15.8458 64.4583 15.6564 64.1167C15.467 63.7751 15.3749 63.3897 15.3897 63.0011C15.4046 62.6124 15.5258 62.2349 15.7407 61.9082C16.8309 60.2461 17.9296 58.3363 18.1338 57.1152C19.4718 49.1183 20.2206 34.5811 20.2206 34.5811C20.2206 28.7359 22.585 23.13 26.7936 18.9968C31.0021 14.8636 36.7102 12.5416 42.662 12.5416C48.6138 12.5416 54.3219 14.8636 58.5305 18.9968C62.739 23.13 65.1034 28.7359 65.1034 34.5811C65.1034 34.5811 65.8517 49.1197 67.1907 57.1152C67.3949 58.3363 68.4931 60.2461 69.5838 61.9082C69.7987 62.2349 69.92 62.6124 69.9348 63.0011C69.9496 63.3897 69.8575 63.7751 69.6681 64.1167C69.4787 64.4583 69.1991 64.7434 68.8586 64.942C68.5181 65.1407 68.1294 65.2455 67.7334 65.2455H17.5911Z" fill="#FFB86D"/>
</svg>
