<svg width="110" height="162" viewBox="0 0 110 162" fill="none" xmlns="http://www.w3.org/2000/svg">
<path d="M98.4982 31.9367H92.8835C91.49 31.9367 90.1535 31.3926 89.1682 30.4241C88.1828 29.4555 87.6292 28.1419 87.6292 26.7722V17.0366C81.668 20.3024 70.6804 24.1644 52.7231 23.3556C42.5043 22.8961 34.3718 20.9708 28.3333 18.8556C26.2097 18.1151 24.127 17.2659 22.0938 16.3113V26.7722C22.0938 28.1419 21.5403 29.4555 20.5549 30.4241C19.5695 31.3926 18.2331 31.9367 16.8396 31.9367H11.2241C8.45339 31.9368 5.79622 33.0188 3.83709 34.9445C1.87796 36.8703 0.777344 39.4821 0.777344 42.2055V153.649C0.777344 155.846 1.66538 157.954 3.24609 159.507C4.82681 161.061 6.97072 161.934 9.20619 161.934H100.516C101.623 161.934 102.719 161.72 103.742 161.303C104.765 160.887 105.694 160.277 106.476 159.507C107.259 158.738 107.88 157.825 108.303 156.819C108.727 155.814 108.945 154.737 108.945 153.649V42.2043C108.945 39.4811 107.844 36.8696 105.885 34.9441C103.926 33.0186 101.269 31.9368 98.4982 31.9367Z" fill="#F2EFFF"/>
<path d="M81.3912 18.8556C75.3522 20.9708 67.2197 22.8961 57.0009 23.3556C56.2758 23.3882 53.4501 23.3882 52.7245 23.3556C42.5057 22.8961 34.3732 20.9708 28.3347 18.8556C26.2111 18.1151 24.1284 17.2659 22.0952 16.3113V25.5429C28.7249 28.4556 38.4955 31.0606 52.2223 31.0606H57.5036C71.2303 31.0606 81.001 28.4556 87.6306 25.5429V16.3113C85.5974 17.2658 83.5147 18.1151 81.3912 18.8556V18.8556Z" fill="#C0C1FF"/>
<path d="M87.6306 13.8577V18.6805C81.6693 21.9463 70.6817 25.8083 52.7245 24.9994C42.5057 24.5399 34.3732 22.6146 28.3347 20.4994C26.2111 19.759 24.1284 18.9097 22.0952 17.9551V13.8577H87.6306Z" fill="#F2EFFF"/>
<path d="M53.942 152.067H16.0746C14.2582 152.067 12.7856 153.515 12.7856 155.3V158.701C12.7856 160.486 14.2582 161.934 16.0746 161.934H53.942C55.7584 161.934 57.2309 160.486 57.2309 158.701V155.3C57.2309 153.515 55.7584 152.067 53.942 152.067Z" fill="#FFB86D"/>
<path d="M48.0465 142.2H10.1791C8.36265 142.2 6.89014 143.648 6.89014 145.433V148.834C6.89014 150.62 8.36265 152.067 10.1791 152.067H48.0465C49.8629 152.067 51.3354 150.62 51.3354 148.834V145.433C51.3354 143.648 49.8629 142.2 48.0465 142.2Z" fill="#FFB86D"/>
<path d="M53.942 132.334H16.0746C14.2582 132.334 12.7856 133.781 12.7856 135.567V138.968C12.7856 140.753 14.2582 142.2 16.0746 142.2H53.942C55.7584 142.2 57.2309 140.753 57.2309 138.968V135.567C57.2309 133.781 55.7584 132.334 53.942 132.334Z" fill="#FFB86D"/>
<path d="M50.9943 122.646H13.1268C11.3104 122.646 9.83789 124.093 9.83789 125.879V129.28C9.83789 131.065 11.3104 132.513 13.1268 132.513H50.9943C52.8107 132.513 54.2832 131.065 54.2832 129.28V125.879C54.2832 124.093 52.8107 122.646 50.9943 122.646Z" fill="#FFB86D"/>
<path d="M45.0988 112.779H7.23132C5.41489 112.779 3.94238 114.227 3.94238 116.012V119.413C3.94238 121.199 5.41489 122.646 7.23132 122.646H45.0988C46.9152 122.646 48.3877 121.199 48.3877 119.413V116.012C48.3877 114.227 46.9152 112.779 45.0988 112.779Z" fill="#FFB86D"/>
<path d="M50.9943 102.913H13.1268C11.3104 102.913 9.83789 104.36 9.83789 106.146V109.547C9.83789 111.332 11.3104 112.779 13.1268 112.779H50.9943C52.8107 112.779 54.2832 111.332 54.2832 109.547V106.146C54.2832 104.36 52.8107 102.913 50.9943 102.913Z" fill="#FFB86D"/>
<path d="M56.8898 92.9803H19.0223C17.2059 92.9803 15.7334 94.4277 15.7334 96.2131V99.6142C15.7334 101.4 17.2059 102.847 19.0223 102.847H56.8898C58.7062 102.847 60.1787 101.4 60.1787 99.6142V96.2131C60.1787 94.4277 58.7062 92.9803 56.8898 92.9803Z" fill="#FFB86D"/>
<path d="M50.9943 83.1138H13.1268C11.3104 83.1138 9.83789 84.5611 9.83789 86.3466V89.7476C9.83789 91.533 11.3104 92.9803 13.1268 92.9803H50.9943C52.8107 92.9803 54.2832 91.533 54.2832 89.7476V86.3466C54.2832 84.5611 52.8107 83.1138 50.9943 83.1138Z" fill="#FFB86D"/>
<path d="M56.8903 73.5608H19.0228C17.2064 73.5608 15.7339 75.0082 15.7339 76.7936V80.1946C15.7339 81.98 17.2064 83.4274 19.0228 83.4274H56.8903C58.7067 83.4274 60.1792 81.98 60.1792 80.1946V76.7936C60.1792 75.0082 58.7067 73.5608 56.8903 73.5608Z" fill="#FFB86D"/>
<path d="M67.3219 63.6938H29.4545C27.638 63.6938 26.1655 65.1412 26.1655 66.9266V70.3276C26.1655 72.1131 27.638 73.5604 29.4545 73.5604H67.3219C69.1383 73.5604 70.6108 72.1131 70.6108 70.3276V66.9266C70.6108 65.1412 69.1383 63.6938 67.3219 63.6938Z" fill="#FFB86D"/>
<path d="M84.9711 161.191C97.7734 161.191 108.152 150.99 108.152 138.406C108.152 125.823 97.7734 115.622 84.9711 115.622C72.1688 115.622 61.7905 125.823 61.7905 138.406C61.7905 150.99 72.1688 161.191 84.9711 161.191Z" fill="#FFB86D"/>
<g opacity="0.29">
<path d="M84.9711 153.177C93.2703 153.177 99.9983 146.564 99.9983 138.406C99.9983 130.249 93.2703 123.636 84.9711 123.636C76.6718 123.636 69.9438 130.249 69.9438 138.406C69.9438 146.564 76.6718 153.177 84.9711 153.177Z" fill="white"/>
</g>
<path d="M77.6978 138.719L80.2261 138.182C80.4096 139.546 80.7897 140.523 81.5207 141.242C82.3965 142.102 83.1453 142.124 83.8488 141.431C85.439 139.868 81.3306 135.887 84.1192 133.145C85.9119 131.383 88.296 131.481 90.2544 133.406C90.8186 133.945 91.2568 134.598 91.5385 135.32C91.8202 136.042 91.9386 136.815 91.8855 137.587L89.4462 137.749C89.3955 136.695 89.1881 135.962 88.5429 135.328C87.7992 134.598 87.096 134.496 86.4018 135.178C84.9279 136.627 89.1363 140.511 86.1819 143.414C84.4075 145.159 81.9491 145.266 79.6867 143.042C78.5421 141.866 77.8404 140.34 77.6978 138.719V138.719ZM90.9108 131.075L92.4175 132.556L90.1918 134.743L88.685 133.262L90.9108 131.075ZM80.1384 141.663L81.6451 143.144L79.203 145.545L77.6963 144.064L80.1384 141.663Z" fill="white"/>
<path d="M94.064 107.785L64.2025 84.8967C62.7701 83.7988 60.7034 84.0501 59.5864 85.4581L57.4587 88.14C56.3417 89.548 56.5974 91.5794 58.0298 92.6773L87.8913 115.566C89.3237 116.664 91.3904 116.412 92.5074 115.004L94.6351 112.322C95.7521 110.914 95.4964 108.883 94.064 107.785Z" fill="#FFB86D"/>
<path d="M107.273 105.398L77.412 82.5097C75.9796 81.4118 73.9129 81.6631 72.7959 83.071L70.6682 85.753C69.5512 87.161 69.8069 89.1924 71.2393 90.2903L101.101 113.179C102.533 114.276 104.6 114.025 105.717 112.617L107.845 109.935C108.962 108.527 108.706 106.496 107.273 105.398Z" fill="#FFB86D"/>
<path d="M93.2349 10.9021C93.1124 11.0251 92.9293 11.2017 92.6828 11.4216C88.4257 14.092 76.5263 20.3229 56.9997 21.2008C56.2746 21.2335 53.4481 21.2335 52.7229 21.2008C33.1964 20.3229 21.297 14.092 17.0399 11.4216C16.7934 11.2021 16.6103 11.0251 16.4878 10.9021V19.443C16.4869 19.7571 16.5692 20.066 16.7266 20.3393C16.884 20.6127 17.1112 20.841 17.3857 21.0018C23.7317 24.701 34.7846 28.9048 52.2207 28.9048H57.502C74.938 28.9048 85.9909 24.701 92.337 21.0018C92.6115 20.841 92.8386 20.6127 92.9961 20.3393C93.1535 20.066 93.2358 19.7571 93.2349 19.443V10.9021Z" fill="#F2EFFF"/>
<path d="M93.2238 10.7668C93.2238 14.8541 76.0478 21.1879 54.86 21.1879C33.6721 21.1879 16.4899 13.2637 16.4961 10.7668C16.5143 5.01103 33.6721 0.345459 54.86 0.345459C76.0478 0.345459 93.2238 5.01255 93.2238 10.7668Z" fill="#C0C1FF"/>
<path d="M70.5835 9.46436H39.1387V12.069H70.5835V9.46436Z" fill="#F2EFFF"/>
</svg>
